<svg width="32" height="34" viewBox="0 0 32 34" fill="none" xmlns="http://www.w3.org/2000/svg">
<path fill-rule="evenodd" clip-rule="evenodd" d="M11.6679 2.00242C20 2.00192 20 2.00192 20 2.00192C24.2948 2.65658 27.0225 4.86045 28.5236 8.88549C29.6956 13.8248 28.2028 17.7419 24.045 20.6367C26.3188 24.6049 30.5 32.0305 30.5 32.0305C30.5 32.0305 31.0453 32.9699 31 33.0315C30.9547 33.093 31 33.0315 25 33.0315C17 33.0315 9.69265 33.0315 2 33.0315C1.85952 22.8085 1.86058 12.2315 2.00106 2.00244C11.1591 2.00246 10.4656 2.00242 11.6679 2.00242Z" fill="white"/>
<path d="M14 18V33" stroke="black" stroke-width="0.9"/>
<path d="M14 7V14" stroke="black" stroke-width="1.5"/>
</svg>
